<svg xmlns="http://www.w3.org/2000/svg" fill="none" viewBox="0 0 14 14" id="Shopping-Cart-Add--Streamline-Core.svg"><desc>Shopping Cart Add Streamline Icon: https://streamlinehq.com</desc><g id="Shopping-Cart-Add--Streamline-Core.svg"><path id="Subtract" fill="#dbdbdd" fill-rule="evenodd" d="M3.505 0.078a0.75 0.75 0 0 1 0.746 0.675l0.285 2.833h7.549a1.431 1.431 0 0 1 1.217 0.6 1.432 1.432 0 0 1 0.199 1.286l-1.239 3.725 0 0.002a1.431 1.431 0 0 1 -1.417 0.973H4.994a1.431 1.431 0 0 1 -1.431 -1.24L3.08 4.135a0.501 0.501 0 0 1 -0.002 -0.052l-0.252 -2.506H1.177a0.75 0.75 0 0 1 0 -1.5h2.328Zm7.15 11.566a1.178 1.178 0 1 1 0 2.356 1.178 1.178 0 0 1 0 -2.356Zm-3.969 1.178a1.178 1.178 0 1 0 -2.355 0 1.178 1.178 0 0 0 2.355 0Zm1.626 -7.759a0.625 0.625 0 0 0 -0.625 0.625v0.687H7a0.625 0.625 0 1 0 0 1.25h0.687v0.687a0.625 0.625 0 0 0 1.25 0v-0.687h0.687a0.625 0.625 0 1 0 0 -1.25h-0.687v-0.687a0.625 0.625 0 0 0 -0.625 -0.625Z" clip-rule="evenodd" stroke-width="1"></path></g></svg>