<svg xmlns="http://www.w3.org/2000/svg" fill="none" viewBox="0 0 14 14" id="Shopping-Cart-2--Streamline-Flex.svg"><desc>Shopping Cart 2 Streamline Icon: https://streamlinehq.com</desc><g id="Shopping-Cart-2--Streamline-Flex.svg"><path id="Union" fill="#fefefe" fill-rule="evenodd" d="M2.832 2.799a1.25 1.25 0 0 0 -1.234 -1.05H1.05a0.75 0.75 0 0 1 0 -1.5h0.548a2.75 2.75 0 0 1 2.646 2h8.53c0.552 0 1.004 0.449 0.956 0.999a11.884 11.884 0 0 1 -0.804 3.39 1.885 1.885 0 0 1 -1.38 1.143c-0.654 0.134 -1.652 0.27 -3.011 0.27 -0.973 0 -1.793 -0.07 -2.443 -0.159a2.229 2.229 0 0 1 -0.976 -0.378l0.152 0.935a1.25 1.25 0 0 0 1.234 1.05h5.548a0.75 0.75 0 0 1 0 1.5H6.502a2.75 2.75 0 0 1 -2.715 -2.31l-0.955 -5.89Zm2.571 10.944a1.12 1.12 0 1 0 0 -2.238 1.12 1.12 0 0 0 0 2.238Zm7.766 -1.12a1.12 1.12 0 1 1 -2.238 0 1.12 1.12 0 0 1 2.238 0Z" clip-rule="evenodd" stroke-width="1"></path></g></svg>