<svg xmlns="http://www.w3.org/2000/svg" viewBox="0 0 10 10" version="1.1" id="View--Streamline-Micro.svg">
	<path d="M4.745 1.00582C4.723 1.00793 4.64875 1.01468 4.58 1.02081C3.2338799999999996 1.14089 1.9418799999999998 1.9591200000000002 0.9091400000000001 3.3455900000000005C0.60766 3.75034 0.32642000000000004 4.20896 0.11909000000000002 4.63394C0.022240000000000003 4.83247 0 4.90082 0 5C0 5.0991800000000005 0.022240000000000003 5.16753 0.11909000000000002 5.36606C0.52559 6.19928 1.1426800000000001 7.04319 1.77286 7.62765C2.64115 8.432960000000001 3.54842 8.86991 4.585 8.982000000000001C4.742780000000001 8.999070000000001 5.25722 8.999070000000001 5.415 8.982000000000001C6.45312 8.86974 7.35574 8.43499 8.22714 7.62752C8.76972 7.12476 9.29315 6.443020000000001 9.708120000000001 5.69862C9.81837 5.500839999999999 9.95696 5.21737 9.97635 5.15C9.98505 5.119750000000001 9.99618 5.08719 10.001090000000001 5.077640000000001C10.01148 5.05738 10.01335 4.90332 10.003070000000001 4.913600000000001C9.999260000000001 4.91741 9.99011 4.89679 9.98274 4.8677600000000005C9.96643 4.80355 9.8227 4.5069099999999995 9.70955 4.30394C9.14645 3.2938600000000005 8.41948 2.44544 7.6402 1.8888900000000002C6.94359 1.3913900000000001 6.25239 1.11612 5.469779999999999 1.02453C5.34337 1.00974 4.83962 0.99673 4.745 1.00582M4.84 2.00597C4.34378 2.03946 3.95813 2.14171 3.525 2.35463C2.70001 2.7601799999999996 1.9294900000000001 3.52155 1.31335 4.54C1.19685 4.73257 1.06 4.98104 1.06 5C1.06 5.01896 1.19685 5.267430000000001 1.31335 5.46C1.84776 6.343350000000001 2.52256 7.05776 3.22331 7.482060000000001C3.46586 7.628920000000001 3.7814 7.77292 4.025 7.84792C4.3621300000000005 7.95171 4.64029 7.99313 5 7.99313C5.53482 7.99313 5.978540000000001 7.888440000000001 6.4750000000000005 7.6451199999999995C7.2959000000000005 7.242780000000001 8.06024 6.4890099999999995 8.67936 5.47121C8.80038 5.272279999999999 8.94 5.01985 8.94 5C8.94 4.96539 8.6555 4.477110000000001 8.49939 4.243790000000001C8.142100000000001 3.70979 7.681290000000001 3.19558 7.25379 2.8538600000000005C6.6462900000000005 2.3682499999999997 6.01456 2.09327 5.34 2.02082C5.23393 2.00943 4.92478 2.0002400000000002 4.84 2.00597M4.8 3.26039C4.36784 3.31335 3.9666300000000003 3.52449 3.6841000000000004 3.84765C3.2185300000000003 4.38018 3.11847 5.1404700000000005 3.43077 5.772609999999999C3.68404 6.28526 4.16957 6.64087 4.74 6.7315C4.78775 6.73908 4.90169 6.745 5 6.745C5.098310000000001 6.745 5.21225 6.73908 5.26 6.7315C6.02287 6.61029 6.61029 6.02287 6.7315 5.26C6.74899 5.1498800000000005 6.74899 4.85012 6.7315 4.74C6.61208 3.98836 6.034930000000001 3.40128 5.29 3.2737000000000003C5.18504 3.25572 4.90106 3.24801 4.8 3.26039M4.87121 4.261270000000001C4.79549 4.27385 4.688210000000001 4.3127699999999995 4.621720000000001 4.35179C4.54885 4.39456 4.39456 4.54885 4.35179 4.621720000000001C4.27349 4.75516 4.23747 4.93278 4.25714 5.08858C4.27019 5.19198 4.30502 5.298579999999999 4.35179 5.37828C4.39456 5.45115 4.54885 5.60544 4.621720000000001 5.648210000000001C4.84644 5.780080000000001 5.15356 5.780080000000001 5.37828 5.648210000000001C5.45115 5.60544 5.60544 5.45115 5.648210000000001 5.37828C5.780080000000001 5.15356 5.780080000000001 4.84644 5.648210000000001 4.621720000000001C5.60544 4.54885 5.45115 4.39456 5.37828 4.35179C5.23388 4.26705 5.0423 4.23285 4.87121 4.261270000000001M0.00349 5C0.00349 5.04675 0.005220000000000001 5.06587 0.00732 5.0425C0.00943 5.0191300000000005 0.00943 4.98087 0.00732 4.9575000000000005C0.005220000000000001 4.934130000000001 0.00349 4.95325 0.00349 5" stroke="none" fill="#8a8894" fill-rule="evenodd"></path>
</svg>